<?xml version="1.0" encoding="UTF-8"?>
<svg width="152px" height="20px" viewBox="0 0 152 20" version="1.1" xmlns="http://www.w3.org/2000/svg" xmlns:xlink="http://www.w3.org/1999/xlink">
    <title>Connor Munro</title>
    <desc>Front-end developer. UI Designer.</desc>
    <defs></defs>
    <g id="Page-1" stroke="none" stroke-width="1" fill="none" fill-rule="evenodd">
        <g id="Desktop-HD" transform="translate(-644.000000, -26.000000)" fill-rule="nonzero" fill="#000000">
            <g id="knife" transform="translate(644.000000, 26.000000)">
                <path d="M94,2 L147.531167,2 C149.008036,2 150.042671,3.9040794 149.998777,6.59992072 C149.955404,9.26374213 148.864308,11.2324016 147.531167,11.2324016 C145.976856,11.2324017 145.092051,10.9339038 143.48296,10.0487417 C143.361382,9.98177372 143.361382,9.98177372 143.237812,9.91367239 C141.186816,8.78450337 139.864259,8.34697051 137.589391,8.34697051 C136.396814,8.34697051 134.300437,8.53237833 130.964431,8.91165739 C129.657088,9.06029248 128.223094,9.2308156 126.129906,9.48477945 C125.559776,9.55395265 123.521819,9.801965 123.475737,9.80756725 C122.388476,9.93974665 121.547141,10.0415322 120.721164,10.1406017 C119.337574,10.3065524 118.102446,10.4520965 116.923972,10.5875085 C109.289551,11.4647385 103.941381,11.9200001 100.333922,11.9200001 C96.6546223,11.9200001 94,9.93425726 94,6.96000004 C94,5.8088811 94,5.8088811 94,4.28965301 C94,3.31865594 94,2 94,2 Z M92,0 L92,1 C92,1.4625305 92,1.4625305 92,2.4437673 C92,3.31865594 92,3.31865594 92,4.28965301 C92,5.8088811 92,5.8088811 92,6.96000004 C92,11.185703 95.6553202,13.9200001 100.333922,13.9200001 C104.042222,13.9200001 109.443203,13.4602431 117.152279,12.5744348 C118.334353,12.4386091 119.57268,12.2926881 120.959341,12.1263689 C121.786559,12.0271506 122.62887,11.9252471 123.717102,11.7929496 C123.763503,11.7873085 125.801094,11.5393408 126.370797,11.4702193 C128.459383,11.2168138 129.889173,11.0467907 131.19036,10.8988554 C134.445863,10.5287289 136.500977,10.3469705 137.589391,10.3469705 C139.470446,10.3469705 140.491454,10.6847438 142.27324,11.6656997 C142.395373,11.7330095 142.395373,11.7330095 142.518987,11.801099 C144.396811,12.8340912 145.577479,13.2324017 147.531167,13.2324016 C150.283647,13.2324015 151.939702,10.2443887 151.998512,6.63248081 C152.058158,2.96924821 150.444733,0 147.531167,0 L93,0 L92,0 Z" id="Shape"></path>
                <path d="M93.9999996,2 L91.8439371,2 C84.9931795,2 79.5127197,2.00000409 67.1817934,2.00001636 C42.5199374,2.00004091 31.558722,2.00004091 17.8557392,2 C13.6891808,1.99998756 9.45981429,2.69809663 5.91991679,3.82950236 C4.46985485,4.29296447 3.72129113,4.52064802 2.88385005,4.98400897 L3.07140864,5.11036639 C4.22275027,5.98593719 5.82290218,7.02481396 7.59840845,8.03463405 C11.8976148,10.4798098 16.4466533,12.3497632 20.1283491,13.0175472 C26.8326038,14.2335614 78.7012925,17.0723945 85.7228398,17.0723953 C87.1740085,17.0730787 87.8600817,17.0305725 88.6264109,16.8506278 C90.8326556,16.3325711 91.999997,14.7991878 91.9999995,10.8985494 C92.0000016,5.75482583 92.0000016,5.75482583 91.9999996,3.67536179 C91.999999,3.1646679 91.999999,3.1646679 91.9999986,2.70532178 C91.9999979,1.65744946 91.9999979,1.65744946 91.9999996,-2.68307656e-06 L93.9999996,2 Z M93.9999996,3.15213234e-13 C93.9999945,3.79820249 94.0000049,2.45756295 93.9999995,10.8985507 C93.9999941,19.1803071 88.4946417,19.0723957 85.7228396,19.0723953 C82.9510374,19.072395 28.5075859,16.5700011 19.7714139,14.9854388 C11.0352419,13.4008766 -3.38751939e-07,6.06594804 5.68434189e-14,4.79906606 C3.38752053e-07,3.53218409 8.21083132,-2.8795954e-05 17.8557452,3.05533376e-13 C42.5211078,7.36411616e-05 67.1812065,3.12117381e-13 91.8439371,3.14910738e-13 L93.9999996,3.15213234e-13 Z" id="Shape"></path>
                <circle id="Oval" cx="97" cy="5" r="1"></circle>
                <circle id="Oval" cx="147" cy="5" r="1"></circle>
                <path d="M82.4106742,10.1142285 C83.2365217,10.5971945 83.9727778,11.776439 84.5752697,13.4341948 C84.8763797,14.2626988 85.124467,15.1543305 85.3220284,16.0464949 C85.3912468,16.3590775 85.4491368,16.6491149 85.4961267,16.9089144 C85.5240829,17.0634795 85.542052,17.1726203 85.5504858,17.2286807 L86.539358,17.079913 C86.5294995,17.0143831 86.5099333,16.895542 86.4801604,16.7309324 C86.4309352,16.4587741 86.3705148,16.1560585 86.2983768,15.8302918 C86.0920626,14.8986009 85.832681,13.9663772 85.5151229,13.0926163 C84.8393556,11.2332431 83.9964301,9.88314883 82.9154977,9.25100589 C80.6980363,7.95420646 42.4171746,7.20214844 5.27246094,7.20214844 L6.27246094,8.20214844 C42.3578146,8.20214844 80.4552629,8.97067926 82.4106742,10.1142285 Z" id="Shape"></path>
                <path d="M95.7420835,8.53980656 C96.8385425,10.6925556 98.697018,10.9488889 104.339679,10.6080685 C104.696671,10.586506 104.921785,10.5732129 105.157485,10.5600081 C108.352705,10.3809998 129.722821,7.74381087 132.405569,7.31301142 C136.3771,6.67525734 139.323842,6.75216959 141.724391,7.48759028 C142.460738,7.71317432 143.119293,8.05028479 143.901146,8.57551573 C144.132174,8.73071484 144.372603,8.90078012 144.681086,9.12548556 C144.807795,9.21778354 145.364551,9.62702335 145.517667,9.73853043 C145.740889,9.90109244 146.053629,9.85191754 146.216191,9.62869522 C146.378753,9.4054729 146.329579,9.09273291 146.106356,8.9301709 C145.95561,8.82038937 145.398913,8.41119329 145.269864,8.31719124 C144.952009,8.08565874 144.702034,7.90884148 144.458779,7.74542844 C143.601463,7.16950286 142.858364,6.78911436 142.017309,6.53145267 C139.454389,5.74628882 136.358229,5.66547663 132.247019,6.3256605 C129.59534,6.75147083 108.256183,9.3848392 105.101549,9.56157372 C104.864042,9.57487974 104.637726,9.58824381 104.279388,9.60988766 C99.1156705,9.92177957 97.4512769,9.69221536 96.6331606,8.08595456 C96.5078328,7.83989042 96.2067602,7.74201425 95.9606961,7.86734202 C95.7146319,7.99266979 95.6167558,8.29374242 95.7420835,8.53980656 L95.7420835,8.53980656 Z" id="Shape"></path>
            </g>
        </g>
    </g>
</svg>