<?xml version="1.0" encoding="UTF-8"?>
<svg width="252px" height="267px" viewBox="0 0 252 267" version="1.1" xmlns="http://www.w3.org/2000/svg" xmlns:xlink="http://www.w3.org/1999/xlink">
    <!-- Generator: Sketch 47.1 (45422) - http://www.bohemiancoding.com/sketch -->
    <title>shape-03</title>
    <desc>Created with Sketch.</desc>
    <defs></defs>
    <g id="Page-1" stroke="none" stroke-width="1" fill="none" fill-rule="evenodd">
        <g id="Desktop-HD" transform="translate(-625.000000, -480.000000)" fill="#DACBB7">
            <path d="M747.203125,744.5625 C728.989583,745.164062 710.687312,748.260906 692.5625,746.367188 C684.171732,745.490502 676.832006,740.200443 669.289062,736.421875 C634.509217,718.999234 619.718261,678.693025 628.429688,641.796875 C634.418309,616.432822 652.336001,598.438783 665.929688,577.539062 C692.112141,537.284643 707.614123,491.551921 758.914062,484.007812 C805.191278,477.20234 844.254657,477.158917 859.351562,526.648438 C862.930624,538.381043 865.610335,550.389407 867.914062,562.4375 C870.713717,577.079207 873.779819,591.7668 874.648438,606.648438 C875.969295,629.278093 879.572452,660.367008 867.328125,682.84375 C858.076841,699.826205 826.645053,735.79157 805.820312,737.804688 C748.881018,743.308981 729.341955,745.561586 747.203125,744.5625 Z" id="shape-03"></path>
        </g>
    </g>
</svg>