<?xml version="1.0" encoding="UTF-8"?>
<svg width="338px" height="115px" viewBox="0 0 338 115" version="1.1" xmlns="http://www.w3.org/2000/svg" xmlns:xlink="http://www.w3.org/1999/xlink">
    <!-- Generator: Sketch 47.1 (45422) - http://www.bohemiancoding.com/sketch -->
    <title>shape-01</title>
    <desc>Created with Sketch.</desc>
    <defs></defs>
    <g id="Page-1" stroke="none" stroke-width="1" fill="none" fill-rule="evenodd">
        <g id="Desktop-HD" transform="translate(-103.000000, 0.000000)" fill="#7C5917">
            <path d="M163.700017,-92.9276834 C154.606267,-72.6985168 146.321858,-52.0856933 136.418767,-32.2401834 C122.268111,-3.88267547 99.1912308,20.67371 103.535954,54.3535666 C107.315347,83.6510366 171.830198,102.784638 192.832829,107.267629 C214.980521,111.995032 255.234861,116.944874 277.465642,113.228567 C288.368866,111.40588 298.318953,105.707516 308.160954,100.673879 C335.34334,86.7715981 362.065647,71.9506903 388.395329,56.4941916 C397.020732,51.4307607 410.291597,41.7445001 417.668767,32.9629416 C425.85262,23.2211321 451.842571,-12.3480296 447.387517,-25.7558084 C441.539973,-43.3543735 407.697783,-81.9742162 388.332829,-92.0839334 C349.277962,-112.473017 232.230353,-115.460168 197.973454,-113.482371 C188.385947,-112.928843 179.983871,-106.753204 170.989079,-103.388621 L163.700017,-92.9276834 Z" id="shape-01"></path>
        </g>
    </g>
</svg>