<?xml version="1.0" encoding="UTF-8"?>
<svg width="151px" height="173px" viewBox="0 0 151 173" version="1.1" xmlns="http://www.w3.org/2000/svg" xmlns:xlink="http://www.w3.org/1999/xlink">
    <!-- Generator: Sketch 47.1 (45422) - http://www.bohemiancoding.com/sketch -->
    <title>shape-02</title>
    <desc>Created with Sketch.</desc>
    <defs></defs>
    <g id="Page-1" stroke="none" stroke-width="1" fill="none" fill-rule="evenodd">
        <g id="Desktop-HD" transform="translate(-424.000000, -354.000000)" fill="#804315">
            <path d="M439.777342,422.704899 C432.349281,436.367895 427.217541,471.431561 426.207029,479.009587 C424.841709,489.248398 424.083944,499.653524 424.730467,509.962712 C425.30483,519.121267 442.284709,525.962988 448.847654,526.439274 C472.294461,528.140857 488.188391,525.800203 509.996092,516.884587 C525.257103,510.645447 540.34647,503.737454 554.449217,495.197087 C562.345209,490.415418 566.000938,477.723108 568.050779,469.986149 C577.796325,433.20238 579.95301,396.567523 556.746092,364.900212 C541.845468,344.567366 509.996092,359.914062 496.261717,371.197087 C467.035382,390.029847 448.207257,407.199118 439.777342,422.704899 Z" id="shape-02"></path>
        </g>
    </g>
</svg>