<?xml version="1.0" encoding="UTF-8"?>
<svg width="264px" height="225px" viewBox="0 0 264 225" version="1.1" xmlns="http://www.w3.org/2000/svg" xmlns:xlink="http://www.w3.org/1999/xlink">
    <!-- Generator: Sketch 47.1 (45422) - http://www.bohemiancoding.com/sketch -->
    <title>shape-04</title>
    <desc>Created with Sketch.</desc>
    <defs></defs>
    <g id="Page-1" stroke="none" stroke-width="1" fill="none" fill-rule="evenodd">
        <g id="Desktop-HD" transform="translate(-924.000000, -412.000000)" fill="#233043">
            <path d="M979.242187,443.351562 C968.094338,462.610882 957.096971,481.963995 946.585937,501.578125 C925.018388,541.824284 907.082049,584.553562 952.03125,614.796875 C960.185584,620.283382 968.969377,625.168095 978.359375,628.070312 C993.715443,632.816496 1032.35882,640.689388 1050.54688,633.0625 C1119.77333,604.033428 1190.53646,546.95431 1187.29688,466.296875 C1187.14127,462.422745 1183.27072,459.631195 1180.76562,456.671875 C1169.29633,443.122985 1151.19836,431.437532 1137.00781,423.382812 C1130.92066,419.927678 1124.2518,417.016704 1117.3125,416.101562 C1096.86367,413.404811 1021.42118,409.742556 1009.39062,416.101562 C993.024519,427.819254 982.97504,436.902587 979.242187,443.351562 Z" id="shape-04"></path>
        </g>
    </g>
</svg>